HIERARCHY
ROOT SpineBase
{
  OFFSET 0.000000 0.000000 0.000000
  CHANNELS 6 Xposition Yposition Zposition Zrotation Xrotation Yrotation
  JOINT SpineMid
  {
    OFFSET -0.000000 31.868292 0.000000
    CHANNELS 3 Zrotation Xrotation Yrotation
    JOINT SpineShoulder
    {
      OFFSET 0.103743 23.625135 -0.942486
      CHANNELS 3 Zrotation Xrotation Yrotation
      JOINT Neck
      {
        OFFSET 0.061825 7.803309 -0.655820
        CHANNELS 3 Zrotation Xrotation Yrotation
        JOINT Head
        {
          OFFSET -5.273588 13.304458 0.427950
          CHANNELS 3 Zrotation Xrotation Yrotation
          End Site
          {
            OFFSET 0 0 0
          }
        }
      }
      JOINT ShoulderLeft
      {
        OFFSET -15.439919 -4.562966 7.026775
        CHANNELS 3 Zrotation Xrotation Yrotation
        JOINT ElbowLeft
        {
          OFFSET -2.981754 -27.021698 5.239385
          CHANNELS 3 Zrotation Xrotation Yrotation
          JOINT WristLeft
          {
            OFFSET 1.512894 -25.644522 -3.201968
            CHANNELS 3 Zrotation Xrotation Yrotation
            JOINT HandLeft
            {
              OFFSET 0.881435 -6.583656 -0.804557
              CHANNELS 3 Zrotation Xrotation Yrotation
              JOINT HandTipLeft
              {
                OFFSET 1.042686 -7.159272 -0.128485
                CHANNELS 3 Zrotation Xrotation Yrotation
                End Site
                {
                  OFFSET 0 0 0
                }
              }
              JOINT ThumbLeft
              {
                OFFSET 2.491765 0.651754 -3.689860
                CHANNELS 3 Zrotation Xrotation Yrotation
                End Site
                {
                  OFFSET 0 0 0
                }
              }
            }
          }
        }
      }
      JOINT ShoulderRight
      {
        OFFSET 11.917680 -4.585299 -9.099572
        CHANNELS 3 Zrotation Xrotation Yrotation
        JOINT ElbowRight
        {
          OFFSET 7.673734 -26.341638 -3.002687
          CHANNELS 3 Zrotation Xrotation Yrotation
          JOINT WristRight
          {
            OFFSET 1.884444 -22.743503 -6.957653
            CHANNELS 3 Zrotation Xrotation Yrotation
            JOINT HandRight
            {
              OFFSET -0.588674 -5.291578 0.434926
              CHANNELS 3 Zrotation Xrotation Yrotation
              JOINT HandTipRight
              {
                OFFSET -0.276748 -7.735555 -0.511245
                CHANNELS 3 Zrotation Xrotation Yrotation
                End Site
                {
                  OFFSET 0 0 0
                }
              }
              JOINT ThumbRight
              {
                OFFSET 2.221592 -1.832117 -1.730581
                CHANNELS 3 Zrotation Xrotation Yrotation
                End Site
                {
                  OFFSET 0 0 0
                }
              }
            }
          }
        }
      }
    }
  }
  JOINT HipLeft
  {
    OFFSET -6.418404 -0.190688 -0.220481
    CHANNELS 3 Zrotation Xrotation Yrotation
    JOINT KneeLeft
    {
      OFFSET 3.081808 -38.792529 6.925194
      CHANNELS 3 Zrotation Xrotation Yrotation
      JOINT AnkleLeft
      {
        OFFSET 7.608051 -35.926938 8.851426
        CHANNELS 3 Zrotation Xrotation Yrotation
        JOINT FootLeft
        {
          OFFSET -2.457338 -8.034237 -5.680844
          CHANNELS 3 Zrotation Xrotation Yrotation
          End Site
          {
            OFFSET 0 0 0
          }
        }
      }
    }
  }
  JOINT HipRight
  {
    OFFSET 6.892041 1.816989 -6.846653
    CHANNELS 3 Zrotation Xrotation Yrotation
    JOINT KneeRight
    {
      OFFSET 8.770537 -35.792020 -0.088440
      CHANNELS 3 Zrotation Xrotation Yrotation
      JOINT AnkleRight
      {
        OFFSET 8.583987 -37.369480 9.109352
        CHANNELS 3 Zrotation Xrotation Yrotation
        JOINT FootRight
        {
          OFFSET -2.157051 -6.779654 -8.033623
          CHANNELS 3 Zrotation Xrotation Yrotation
          End Site
          {
            OFFSET 0 0 0
          }
        }
      }
    }
  }
}
MOTION
Frames: 16
Frame Time: 0.033333
-23.021364 83.712741 333.366272 0.000000 0.000000 26.464924 -0.000000 0.000000 -26.464924 -0.000000 0.000000 0.000000 -0.000000 0.000000 0.000000 0.000000 0.000000 0.000000 -0.000000 0.000000 0.000000 -0.000000 0.000000 0.000000 -0.000000 0.000000 0.000000 -0.000000 0.000000 0.000000 0.000000 0.000000 0.000000 0.000000 0.000000 0.000000 -0.000000 0.000000 0.000000 -0.000000 0.000000 0.000000 -0.000000 0.000000 0.000000 -0.000000 0.000000 0.000000 0.000000 0.000000 0.000000 0.000000 0.000000 0.000000 -0.000000 0.000000 -26.464924 -0.000000 0.000000 0.000000 -0.000000 0.000000 0.000000 0.000000 0.000000 0.000000 -0.000000 0.000000 -26.464924 -0.000000 0.000000 0.000000 -0.000000 0.000000 0.000000 0.000000 0.000000 0.000000
-23.017521 83.705478 333.296277 -0.027990 -0.081219 26.572478 0.061365 0.060119 -26.572530 -0.000000 0.000000 0.000000 -0.000000 0.000000 0.000000 0.000000 0.000000 0.000000 -0.000000 0.000000 0.000000 -0.000000 0.000000 0.000000 -4.818928 -3.003126 0.061235 6.531858 2.641297 -0.476508 0.000000 0.000000 0.000000 0.000000 0.000000 0.000000 -0.000000 0.000000 0.000000 -0.000000 0.000000 0.000000 0.131851 1.458798 -0.153318 -0.127988 -1.459142 0.150009 0.000000 0.000000 0.000000 0.000000 0.000000 0.000000 0.061365 0.060119 -26.572530 -0.000000 0.000000 0.000000 -0.000000 0.000000 0.000000 0.000000 0.000000 0.000000 0.061365 0.060119 -26.572530 -0.000000 0.000000 0.000000 2.502830 -4.212047 -1.614936 0.000000 0.000000 0.000000
-23.001935 83.702154 333.226139 -0.033632 -0.143210 26.663863 0.094322 0.112888 -26.663998 -0.000000 0.000000 0.000000 -0.000000 0.000000 0.000000 0.000000 0.000000 0.000000 -0.081500 1.009340 -0.126671 0.083744 -1.009156 0.128126 -8.772910 -5.391549 -0.063062 11.635709 4.668966 -1.150365 0.000000 0.000000 0.000000 0.000000 0.000000 0.000000 -0.000000 0.000000 0.000000 -0.000000 0.000000 0.000000 0.464583 2.844359 -0.290565 -0.351855 -3.942687 0.306760 0.000000 0.000000 0.000000 0.000000 0.000000 0.000000 0.094322 0.112888 -26.663998 -0.000000 0.000000 0.000000 -0.768165 0.271601 0.460194 0.000000 0.000000 0.000000 0.094322 0.112888 -26.663998 -0.000000 0.000000 0.000000 4.660973 -8.158802 -2.872699 0.000000 0.000000 0.000000
-22.974606 83.702770 333.155857 -0.016919 -0.185976 26.739188 0.098786 0.158476 -26.739352 -0.000000 0.000000 0.000000 -0.000000 0.000000 0.000000 0.000000 0.000000 0.000000 -0.189079 1.322882 -0.180832 0.193304 -1.322271 0.185246 -12.050083 -7.279453 -0.273205 15.490068 6.222667 -1.838827 0.000000 0.000000 0.000000 0.000000 0.000000 0.000000 -0.000000 0.000000 0.000000 -0.000000 0.000000 0.000000 0.993450 4.163353 -0.419477 -0.913007 -5.545839 0.399036 0.000000 0.000000 0.000000 0.000000 0.000000 0.000000 0.098786 0.158476 -26.739352 -0.000000 0.000000 0.000000 -1.044677 0.283877 0.651487 0.000000 0.000000 0.000000 0.098786 0.158476 -26.739352 -0.000000 0.000000 0.000000 6.458439 -11.707062 -3.787393 0.000000 0.000000 0.000000
-22.935533 83.707325 333.085432 0.022163 -0.209514 26.798519 0.074678 0.197004 -26.798607 -0.000000 0.000000 0.000000 -0.000000 0.000000 0.000000 0.000000 0.000000 0.000000 -0.341525 1.509482 -0.228806 0.155433 -2.621991 0.189786 -14.554779 -7.696967 -0.185763 18.238293 7.425821 -2.436121 0.000000 0.000000 0.000000 0.000000 0.000000 0.000000 -0.000000 0.000000 0.000000 -0.565826 -0.597095 0.120918 2.296656 6.013471 -0.692240 -1.729783 -6.931379 0.438023 0.000000 0.000000 0.000000 0.000000 0.000000 0.000000 0.074678 0.197004 -26.798607 -0.000000 0.000000 0.000000 -1.249317 0.214573 0.816296 0.000000 0.000000 0.000000 0.074678 0.197004 -26.798607 -0.000000 0.000000 0.000000 7.891110 -14.763426 -4.385943 0.000000 0.000000 0.000000
-22.884717 83.715819 333.014864 0.083634 -0.213815 26.841876 0.021921 0.228541 -26.841764 -0.000000 0.000000 0.000000 -0.000000 0.000000 0.000000 0.000000 0.000000 0.000000 -0.539073 1.569349 -0.270903 0.023309 -3.030619 0.244691 -16.526980 -8.524687 -0.294293 19.994643 8.373417 -2.883929 0.000000 0.000000 0.000000 0.000000 0.000000 0.000000 -0.000000 0.000000 0.000000 -0.628239 -0.665211 0.133725 3.280256 7.280847 -0.851451 -2.806238 -8.108091 0.415171 0.000000 0.000000 0.000000 0.000000 0.000000 0.000000 0.021921 0.228541 -26.841764 -0.000000 0.000000 0.000000 -1.381904 0.063895 0.954472 0.000000 0.000000 0.000000 0.021921 0.228541 -26.841764 -0.000000 0.000000 0.000000 8.960761 -17.271240 -4.699967 0.000000 0.000000 0.000000
-22.814212 83.726242 332.926681 0.179584 -0.175286 26.866957 -0.080986 0.237523 -26.866515 -0.000000 0.000000 0.000000 -0.000000 0.000000 0.000000 0.000000 0.000000 0.000000 -0.842367 1.481998 -0.316518 0.355224 -3.008819 0.291669 -18.621321 -9.292125 -0.393660 19.144924 8.283224 -2.958788 0.000000 0.000000 0.000000 0.000000 0.000000 0.000000 -0.000000 0.000000 0.000000 -0.895221 -0.904136 0.192480 4.745600 7.656996 -0.940554 -3.792952 -8.913487 0.296655 0.000000 0.000000 0.000000 0.000000 0.000000 0.000000 -0.080986 0.237523 -26.866515 -0.000000 0.000000 0.000000 -1.407954 -0.357374 1.098761 0.000000 0.000000 0.000000 -0.080986 0.237523 -26.866515 -0.000000 0.000000 0.000000 11.499264 -23.936993 -4.876670 0.000000 0.000000 0.000000
-22.731891 83.744206 332.843135 0.303404 -0.113282 26.896703 -0.219338 0.238281 -26.895947 -0.000000 0.000000 0.000000 -0.000000 0.000000 0.000000 0.000000 0.000000 0.000000 -1.175391 1.241774 -0.352544 0.081960 -3.345179 0.348984 -19.543984 -9.437470 -0.383766 19.724254 9.612260 -3.023767 0.000000 0.000000 0.000000 0.000000 0.000000 0.000000 -0.000000 0.000000 0.000000 -0.970224 -0.961650 0.209678 6.156801 8.182462 -1.031868 -5.706706 -9.208919 0.088590 0.000000 0.000000 0.000000 0.000000 0.000000 0.000000 -0.219338 0.238281 -26.895947 -0.000000 0.000000 0.000000 -1.450336 -0.619437 1.207075 0.000000 0.000000 0.000000 -0.219338 0.238281 -26.895947 -0.000000 0.000000 0.000000 11.691632 -25.286425 -4.405034 0.000000 0.000000 0.000000
-22.658923 83.758294 332.771263 0.418007 -0.054915 26.937358 -0.347779 0.238318 -26.936435 -0.000000 0.000000 0.000000 -0.000000 0.000000 0.000000 0.000000 0.000000 0.000000 -1.450495 0.837879 -0.363118 -0.563698 -3.584001 0.399122 -20.084142 -8.905352 -0.181461 17.386613 10.809398 -2.387122 0.000000 0.000000 0.000000 0.000000 0.000000 0.000000 -0.000000 0.000000 0.000000 -0.663066 -0.820365 0.130474 7.461014 10.529425 -1.359787 -8.005796 -10.129040 -0.159968 0.000000 0.000000 0.000000 0.000000 0.000000 0.000000 -0.347779 0.238318 -26.936435 -0.000000 0.000000 0.000000 -1.347640 -0.757131 1.176830 0.000000 0.000000 0.000000 -0.347779 0.238318 -26.936435 -0.000000 0.000000 0.000000 10.889702 -24.006531 -3.995344 0.000000 0.000000 0.000000
-22.579881 83.781815 332.717673 0.544500 -0.017018 26.930160 -0.477750 0.261775 -26.928987 -0.000000 0.000000 0.000000 -0.000000 0.000000 0.000000 0.000000 0.000000 0.000000 -1.694237 0.749392 -0.399995 -2.131699 -4.551287 0.503972 -19.064602 -9.277536 -0.442985 19.943366 11.685186 -3.025183 0.000000 0.000000 0.000000 0.000000 0.000000 0.000000 -0.000000 0.000000 0.000000 -0.177993 -0.850003 -0.017340 9.480975 14.980125 -2.134658 -11.526626 -12.061286 -0.761706 0.000000 0.000000 0.000000 0.000000 0.000000 0.000000 -0.477750 0.261775 -26.928987 -0.000000 0.000000 0.000000 -1.183323 -1.171344 1.187705 0.000000 0.000000 0.000000 -1.090243 -0.308614 -27.121236 0.285144 0.786884 0.190040 8.303651 -18.504851 -3.267984 0.000000 0.000000 0.000000
-22.491184 83.811751 332.719602 0.673848 -0.040105 26.765669 -0.583596 0.339263 -26.763705 -0.000000 0.000000 0.000000 -0.000000 0.000000 0.000000 0.000000 0.000000 0.000000 -1.932224 0.319767 -0.404043 -4.043206 -5.291632 0.583205 -19.170568 -8.863883 -0.359831 22.773702 14.420921 -3.319609 0.000000 0.000000 0.000000 0.000000 0.000000 0.000000 -0.000000 0.000000 0.000000 0.934870 0.073492 -0.280265 10.044075 19.006519 -2.857357 -13.765279 -12.861027 -1.400204 0.000000 0.000000 0.000000 0.000000 0.000000 0.000000 -1.238738 -0.134336 -26.885815 0.370175 0.718666 0.120960 -1.155471 -0.896163 1.084726 0.000000 0.000000 0.000000 -1.273859 -0.178558 -26.951411 0.380622 0.774425 0.186102 2.735574 -6.051160 -1.258845 0.000000 0.000000 0.000000
-22.350654 83.852051 332.704128 0.852402 -0.062060 26.518254 -0.735031 0.436098 -26.514995 -0.000000 0.000000 0.000000 -0.000000 0.000000 0.000000 0.000000 0.000000 0.000000 -2.077109 -0.303001 -0.373903 -6.741414 -5.823061 0.690305 -21.409352 -7.292012 0.418080 25.387680 16.396375 -3.284210 0.000000 0.000000 0.000000 0.000000 0.000000 0.000000 -0.000000 0.000000 0.000000 2.398250 1.813680 -0.617388 8.543877 23.451618 -3.605754 -13.201192 -12.726062 -1.514617 0.000000 0.000000 0.000000 0.000000 0.000000 0.000000 -1.584251 -0.028293 -26.673617 0.550392 0.796184 0.157820 -1.420660 -0.240908 1.072763 0.000000 0.000000 0.000000 -1.591504 0.012721 -26.696969 0.574969 0.763027 0.181501 -1.116389 2.029224 0.680594 0.000000 0.000000 0.000000
-22.186331 83.903987 332.705431 1.051809 -0.116581 26.129902 -0.893004 0.567857 -26.124407 0.906055 0.078427 0.074917 -0.906158 -0.077232 -0.076148 0.000000 0.000000 0.000000 -2.758219 -0.891302 -0.359727 -10.103248 -6.629040 0.718440 -25.843736 -5.612613 1.833323 28.590269 20.370132 -2.556407 0.000000 0.000000 0.000000 0.000000 0.000000 0.000000 0.352590 -0.756236 -0.407066 2.627887 4.215603 -0.710634 8.073775 34.758614 -6.279664 -12.199480 -19.667370 -1.501768 0.000000 0.000000 0.000000 0.000000 0.000000 0.000000 -1.965167 0.125366 -26.323892 0.764762 0.872049 0.200152 -1.389187 -0.102344 1.009245 0.000000 0.000000 0.000000 -1.943296 0.326382 -26.280875 0.834775 0.681570 0.159700 -3.356219 6.411583 1.974429 0.000000 0.000000 0.000000
-22.033164 83.976459 332.739120 1.218919 -0.207297 25.636330 -0.178561 0.396922 -25.600855 0.118786 -0.022833 0.049316 -1.005081 -0.049062 -0.084506 0.000000 0.000000 0.000000 -3.173962 -1.835577 -0.341434 -14.424447 -7.214449 0.973760 -30.240152 -2.382829 4.618360 29.078661 23.926535 0.008491 0.000000 0.000000 0.000000 0.000000 0.000000 0.000000 1.198656 -1.142825 -0.628227 3.963369 8.487768 -1.188400 8.553489 44.960766 -9.887569 -11.329887 -28.770326 -1.120853 0.000000 0.000000 0.000000 0.000000 0.000000 0.000000 -2.273020 0.307453 -25.860946 0.959697 0.917248 0.236697 -1.148852 -0.253755 0.886079 0.000000 0.000000 0.000000 -2.218734 0.719455 -25.737277 1.091604 0.520528 0.119615 -4.188829 7.907298 2.501234 0.000000 0.000000 0.000000
-21.887512 84.082289 332.791815 1.363110 -0.325553 25.099300 -0.164050 0.467040 -25.057547 0.073488 -0.018292 0.051299 -1.089958 -0.007822 -0.091612 0.000000 0.000000 0.000000 -3.962206 -3.181107 -0.374565 -19.723676 -7.368813 1.566863 -38.812107 0.515278 9.405970 29.588388 23.884585 2.958069 0.000000 0.000000 0.000000 0.000000 0.000000 0.000000 2.204269 -1.543986 -0.863571 5.505715 14.304519 -1.947116 12.478654 52.504745 -15.228645 -11.251293 -36.322064 -0.646319 0.000000 0.000000 0.000000 0.000000 0.000000 0.000000 -2.509131 0.513691 -25.344450 1.122844 0.929428 0.265363 -0.937373 -0.470450 0.803164 0.000000 0.000000 0.000000 -2.460140 1.182083 -25.132436 1.365665 0.299481 0.066248 -3.621141 6.946389 2.124922 0.000000 0.000000 0.000000
-21.772935 84.212458 332.862513 1.452306 -0.468430 24.523567 -0.114110 0.529864 -24.476115 0.013855 -0.006327 0.051225 -1.142358 0.041958 -0.095921 0.000000 0.000000 0.000000 -5.034658 -4.543326 -0.490971 -26.193418 -7.696793 2.460596 -44.364904 4.321671 16.024827 24.168939 20.141057 5.512336 0.000000 0.000000 0.000000 0.000000 0.000000 0.000000 3.381421 -1.774689 -1.061413 7.741970 23.404373 -3.411675 14.404156 49.036129 -16.082118 -14.708132 -42.675543 -2.279937 0.000000 0.000000 0.000000 0.000000 0.000000 0.000000 -2.627097 0.719966 -24.777002 1.232301 0.909171 0.282607 -0.777412 -0.774403 0.783414 0.000000 0.000000 0.000000 -2.595222 1.692346 -24.469797 1.610761 0.004573 -0.002914 -1.656209 3.196040 0.955741 0.000000 0.000000 0.000000
